solid OpenSCAD_Model
  facet normal -0 0 1
    outer loop
      vertex 120.215 144.357 47.04
      vertex 247.975 58.787 47.04
      vertex 247.975 144.357 47.04
    endloop
  endfacet
  facet normal 0 0 1
    outer loop
      vertex 247.975 58.787 47.04
      vertex 120.215 144.357 47.04
      vertex 120.215 58.787 47.04
    endloop
  endfacet
  facet normal 0 0 -1
    outer loop
      vertex 120.215 58.787 3
      vertex 247.975 144.357 3
      vertex 247.975 58.787 3
    endloop
  endfacet
  facet normal -0 0 -1
    outer loop
      vertex 247.975 144.357 3
      vertex 120.215 58.787 3
      vertex 120.215 144.357 3
    endloop
  endfacet
  facet normal 0 -1 0
    outer loop
      vertex 120.215 58.787 3
      vertex 247.975 58.787 47.04
      vertex 120.215 58.787 47.04
    endloop
  endfacet
  facet normal 0 -1 -0
    outer loop
      vertex 247.975 58.787 47.04
      vertex 120.215 58.787 3
      vertex 247.975 58.787 3
    endloop
  endfacet
  facet normal 1 -0 0
    outer loop
      vertex 247.975 58.787 47.04
      vertex 247.975 144.357 3
      vertex 247.975 144.357 47.04
    endloop
  endfacet
  facet normal 1 0 0
    outer loop
      vertex 247.975 144.357 3
      vertex 247.975 58.787 47.04
      vertex 247.975 58.787 3
    endloop
  endfacet
  facet normal 0 1 -0
    outer loop
      vertex 247.975 144.357 3
      vertex 120.215 144.357 47.04
      vertex 247.975 144.357 47.04
    endloop
  endfacet
  facet normal 0 1 0
    outer loop
      vertex 120.215 144.357 47.04
      vertex 247.975 144.357 3
      vertex 120.215 144.357 3
    endloop
  endfacet
  facet normal -1 0 0
    outer loop
      vertex 120.215 58.787 3
      vertex 120.215 144.357 47.04
      vertex 120.215 144.357 3
    endloop
  endfacet
  facet normal -1 -0 0
    outer loop
      vertex 120.215 144.357 47.04
      vertex 120.215 58.787 3
      vertex 120.215 58.787 47.04
    endloop
  endfacet
endsolid OpenSCAD_Model
