solid OpenSCAD_Model
  facet normal 0.672335 0.740247 -0
    outer loop
      vertex 260.001 246.906 3
      vertex 259.783 247.104 47.04
      vertex 260.001 246.906 47.04
    endloop
  endfacet
  facet normal 0.672335 0.740247 0
    outer loop
      vertex 259.783 247.104 47.04
      vertex 260.001 246.906 3
      vertex 259.783 247.104 3
    endloop
  endfacet
  facet normal -0.149503 -0.988761 0
    outer loop
      vertex 177.725 120.083 3
      vertex 178.016 120.039 47.04
      vertex 177.725 120.083 47.04
    endloop
  endfacet
  facet normal -0.149503 -0.988761 -0
    outer loop
      vertex 178.016 120.039 47.04
      vertex 177.725 120.083 3
      vertex 178.016 120.039 3
    endloop
  endfacet
  facet normal -0.998868 0.0475651 0
    outer loop
      vertex 175.31 244.785 3
      vertex 175.324 245.079 47.04
      vertex 175.324 245.079 3
    endloop
  endfacet
  facet normal -0.998868 0.0475651 0
    outer loop
      vertex 175.324 245.079 47.04
      vertex 175.31 244.785 3
      vertex 175.31 244.785 47.04
    endloop
  endfacet
  facet normal 1 -0 0
    outer loop
      vertex 260.88 123.025 47.04
      vertex 260.88 244.785 3
      vertex 260.88 244.785 47.04
    endloop
  endfacet
  facet normal 1 0 0
    outer loop
      vertex 260.88 244.785 3
      vertex 260.88 123.025 47.04
      vertex 260.88 123.025 3
    endloop
  endfacet
  facet normal 0 0 1
    outer loop
      vertex 257.88 247.785 47.04
      vertex 260.88 244.785 47.04
      vertex 260.866 245.079 47.04
    endloop
  endfacet
  facet normal 0 0 1
    outer loop
      vertex 260.88 244.785 47.04
      vertex 254.095 237.905 47.04
      vertex 260.88 123.025 47.04
    endloop
  endfacet
  facet normal 0 0 1
    outer loop
      vertex 257.88 247.785 47.04
      vertex 260.866 245.079 47.04
      vertex 260.822 245.37 47.04
    endloop
  endfacet
  facet normal -0 0 1
    outer loop
      vertex 254.095 129.905 47.04
      vertex 260.88 123.025 47.04
      vertex 254.095 237.905 47.04
    endloop
  endfacet
  facet normal 0 0 1
    outer loop
      vertex 257.88 247.785 47.04
      vertex 260.822 245.37 47.04
      vertex 260.751 245.656 47.04
    endloop
  endfacet
  facet normal 0 -0 1
    outer loop
      vertex 257.88 120.025 47.04
      vertex 260.88 123.025 47.04
      vertex 254.095 129.905 47.04
    endloop
  endfacet
  facet normal 0 0 1
    outer loop
      vertex 257.88 247.785 47.04
      vertex 260.751 245.656 47.04
      vertex 260.652 245.933 47.04
    endloop
  endfacet
  facet normal 0 0 1
    outer loop
      vertex 260.88 123.025 47.04
      vertex 257.88 120.025 47.04
      vertex 260.866 122.731 47.04
    endloop
  endfacet
  facet normal 0 0 1
    outer loop
      vertex 257.88 247.785 47.04
      vertex 260.652 245.933 47.04
      vertex 260.526 246.199 47.04
    endloop
  endfacet
  facet normal 0 0 1
    outer loop
      vertex 260.866 122.731 47.04
      vertex 257.88 120.025 47.04
      vertex 260.822 122.44 47.04
    endloop
  endfacet
  facet normal 0 0 1
    outer loop
      vertex 257.88 247.785 47.04
      vertex 260.526 246.199 47.04
      vertex 260.374 246.452 47.04
    endloop
  endfacet
  facet normal 0 0 1
    outer loop
      vertex 260.822 122.44 47.04
      vertex 257.88 120.025 47.04
      vertex 260.751 122.154 47.04
    endloop
  endfacet
  facet normal 0 0 1
    outer loop
      vertex 257.88 247.785 47.04
      vertex 260.374 246.452 47.04
      vertex 260.199 246.688 47.04
    endloop
  endfacet
  facet normal 0 0 1
    outer loop
      vertex 260.751 122.154 47.04
      vertex 257.88 120.025 47.04
      vertex 260.652 121.877 47.04
    endloop
  endfacet
  facet normal 0 0 1
    outer loop
      vertex 257.88 247.785 47.04
      vertex 260.199 246.688 47.04
      vertex 260.001 246.906 47.04
    endloop
  endfacet
  facet normal 0 0 1
    outer loop
      vertex 260.652 121.877 47.04
      vertex 257.88 120.025 47.04
      vertex 260.526 121.611 47.04
    endloop
  endfacet
  facet normal 0 0 1
    outer loop
      vertex 257.88 247.785 47.04
      vertex 260.001 246.906 47.04
      vertex 259.783 247.104 47.04
    endloop
  endfacet
  facet normal 0 0 1
    outer loop
      vertex 260.526 121.611 47.04
      vertex 257.88 120.025 47.04
      vertex 260.374 121.358 47.04
    endloop
  endfacet
  facet normal 0 0 1
    outer loop
      vertex 257.88 247.785 47.04
      vertex 259.783 247.104 47.04
      vertex 259.547 247.279 47.04
    endloop
  endfacet
  facet normal 0 0 1
    outer loop
      vertex 260.374 121.358 47.04
      vertex 257.88 120.025 47.04
      vertex 260.199 121.122 47.04
    endloop
  endfacet
  facet normal 0 0 1
    outer loop
      vertex 257.88 247.785 47.04
      vertex 259.547 247.279 47.04
      vertex 259.294 247.431 47.04
    endloop
  endfacet
  facet normal 0 0 1
    outer loop
      vertex 260.199 121.122 47.04
      vertex 257.88 120.025 47.04
      vertex 260.001 120.904 47.04
    endloop
  endfacet
  facet normal 0 0 1
    outer loop
      vertex 257.88 247.785 47.04
      vertex 259.294 247.431 47.04
      vertex 259.028 247.557 47.04
    endloop
  endfacet
  facet normal 0 0 1
    outer loop
      vertex 260.001 120.904 47.04
      vertex 257.88 120.025 47.04
      vertex 259.783 120.706 47.04
    endloop
  endfacet
  facet normal 0 0 1
    outer loop
      vertex 257.88 247.785 47.04
      vertex 259.028 247.557 47.04
      vertex 258.751 247.656 47.04
    endloop
  endfacet
  facet normal 0 0 1
    outer loop
      vertex 259.783 120.706 47.04
      vertex 257.88 120.025 47.04
      vertex 259.547 120.531 47.04
    endloop
  endfacet
  facet normal 0 0 1
    outer loop
      vertex 257.88 247.785 47.04
      vertex 258.751 247.656 47.04
      vertex 258.465 247.727 47.04
    endloop
  endfacet
  facet normal 0 0 1
    outer loop
      vertex 259.547 120.531 47.04
      vertex 257.88 120.025 47.04
      vertex 259.294 120.379 47.04
    endloop
  endfacet
  facet normal 0 0 1
    outer loop
      vertex 257.88 247.785 47.04
      vertex 258.465 247.727 47.04
      vertex 258.174 247.771 47.04
    endloop
  endfacet
  facet normal 0 0 1
    outer loop
      vertex 259.294 120.379 47.04
      vertex 257.88 120.025 47.04
      vertex 259.028 120.253 47.04
    endloop
  endfacet
  facet normal 0 0 1
    outer loop
      vertex 260.88 244.785 47.04
      vertex 257.88 247.785 47.04
      vertex 254.095 237.905 47.04
    endloop
  endfacet
  facet normal 0 0 1
    outer loop
      vertex 259.028 120.253 47.04
      vertex 257.88 120.025 47.04
      vertex 258.751 120.154 47.04
    endloop
  endfacet
  facet normal 0 0 1
    outer loop
      vertex 258.751 120.154 47.04
      vertex 257.88 120.025 47.04
      vertex 258.465 120.083 47.04
    endloop
  endfacet
  facet normal 0 0 1
    outer loop
      vertex 257.88 247.785 47.04
      vertex 182.095 237.905 47.04
      vertex 254.095 237.905 47.04
    endloop
  endfacet
  facet normal -0 0 1
    outer loop
      vertex 175.31 244.785 47.04
      vertex 182.095 237.905 47.04
      vertex 178.31 247.785 47.04
    endloop
  endfacet
  facet normal -0 0 1
    outer loop
      vertex 178.31 247.785 47.04
      vertex 182.095 237.905 47.04
      vertex 257.88 247.785 47.04
    endloop
  endfacet
  facet normal 0 0 1
    outer loop
      vertex 258.465 120.083 47.04
      vertex 257.88 120.025 47.04
      vertex 258.174 120.039 47.04
    endloop
  endfacet
  facet normal -0 0 1
    outer loop
      vertex 182.095 129.905 47.04
      vertex 257.88 120.025 47.04
      vertex 254.095 129.905 47.04
    endloop
  endfacet
  facet normal 0 0 1
    outer loop
      vertex 182.095 129.905 47.04
      vertex 178.31 120.025 47.04
      vertex 257.88 120.025 47.04
    endloop
  endfacet
  facet normal 0 0 1
    outer loop
      vertex 182.095 237.905 47.04
      vertex 175.31 244.785 47.04
      vertex 182.095 129.905 47.04
    endloop
  endfacet
  facet normal 0 0 1
    outer loop
      vertex 175.31 244.785 47.04
      vertex 178.31 247.785 47.04
      vertex 178.016 247.771 47.04
    endloop
  endfacet
  facet normal 0 0 1
    outer loop
      vertex 175.31 123.025 47.04
      vertex 182.095 129.905 47.04
      vertex 175.31 244.785 47.04
    endloop
  endfacet
  facet normal 0 0 1
    outer loop
      vertex 175.31 244.785 47.04
      vertex 178.016 247.771 47.04
      vertex 177.725 247.727 47.04
    endloop
  endfacet
  facet normal 0 0 1
    outer loop
      vertex 182.095 129.905 47.04
      vertex 175.31 123.025 47.04
      vertex 178.31 120.025 47.04
    endloop
  endfacet
  facet normal 0 0 1
    outer loop
      vertex 175.31 244.785 47.04
      vertex 177.725 247.727 47.04
      vertex 177.439 247.656 47.04
    endloop
  endfacet
  facet normal 0 0 1
    outer loop
      vertex 178.31 120.025 47.04
      vertex 175.31 123.025 47.04
      vertex 178.016 120.039 47.04
    endloop
  endfacet
  facet normal 0 0 1
    outer loop
      vertex 175.31 244.785 47.04
      vertex 177.439 247.656 47.04
      vertex 177.162 247.557 47.04
    endloop
  endfacet
  facet normal 0 0 1
    outer loop
      vertex 178.016 120.039 47.04
      vertex 175.31 123.025 47.04
      vertex 177.725 120.083 47.04
    endloop
  endfacet
  facet normal 0 0 1
    outer loop
      vertex 175.31 244.785 47.04
      vertex 177.162 247.557 47.04
      vertex 176.896 247.431 47.04
    endloop
  endfacet
  facet normal 0 0 1
    outer loop
      vertex 177.725 120.083 47.04
      vertex 175.31 123.025 47.04
      vertex 177.439 120.154 47.04
    endloop
  endfacet
  facet normal 0 0 1
    outer loop
      vertex 175.31 244.785 47.04
      vertex 176.896 247.431 47.04
      vertex 176.643 247.279 47.04
    endloop
  endfacet
  facet normal 0 0 1
    outer loop
      vertex 177.439 120.154 47.04
      vertex 175.31 123.025 47.04
      vertex 177.162 120.253 47.04
    endloop
  endfacet
  facet normal 0 0 1
    outer loop
      vertex 175.31 244.785 47.04
      vertex 176.643 247.279 47.04
      vertex 176.407 247.104 47.04
    endloop
  endfacet
  facet normal 0 0 1
    outer loop
      vertex 177.162 120.253 47.04
      vertex 175.31 123.025 47.04
      vertex 176.896 120.379 47.04
    endloop
  endfacet
  facet normal 0 0 1
    outer loop
      vertex 175.31 244.785 47.04
      vertex 176.407 247.104 47.04
      vertex 176.189 246.906 47.04
    endloop
  endfacet
  facet normal 0 0 1
    outer loop
      vertex 176.896 120.379 47.04
      vertex 175.31 123.025 47.04
      vertex 176.643 120.531 47.04
    endloop
  endfacet
  facet normal 0 0 1
    outer loop
      vertex 175.31 244.785 47.04
      vertex 176.189 246.906 47.04
      vertex 175.991 246.688 47.04
    endloop
  endfacet
  facet normal 0 0 1
    outer loop
      vertex 176.643 120.531 47.04
      vertex 175.31 123.025 47.04
      vertex 176.407 120.706 47.04
    endloop
  endfacet
  facet normal 0 0 1
    outer loop
      vertex 175.31 244.785 47.04
      vertex 175.991 246.688 47.04
      vertex 175.816 246.452 47.04
    endloop
  endfacet
  facet normal 0 0 1
    outer loop
      vertex 176.407 120.706 47.04
      vertex 175.31 123.025 47.04
      vertex 176.189 120.904 47.04
    endloop
  endfacet
  facet normal 0 0 1
    outer loop
      vertex 175.31 244.785 47.04
      vertex 175.816 246.452 47.04
      vertex 175.664 246.199 47.04
    endloop
  endfacet
  facet normal 0 0 1
    outer loop
      vertex 176.189 120.904 47.04
      vertex 175.31 123.025 47.04
      vertex 175.991 121.122 47.04
    endloop
  endfacet
  facet normal 0 0 1
    outer loop
      vertex 175.31 244.785 47.04
      vertex 175.664 246.199 47.04
      vertex 175.538 245.933 47.04
    endloop
  endfacet
  facet normal 0 0 1
    outer loop
      vertex 175.991 121.122 47.04
      vertex 175.31 123.025 47.04
      vertex 175.816 121.358 47.04
    endloop
  endfacet
  facet normal 0 0 1
    outer loop
      vertex 175.31 244.785 47.04
      vertex 175.538 245.933 47.04
      vertex 175.439 245.656 47.04
    endloop
  endfacet
  facet normal 0 0 1
    outer loop
      vertex 175.816 121.358 47.04
      vertex 175.31 123.025 47.04
      vertex 175.664 121.611 47.04
    endloop
  endfacet
  facet normal 0 0 1
    outer loop
      vertex 175.31 244.785 47.04
      vertex 175.439 245.656 47.04
      vertex 175.368 245.37 47.04
    endloop
  endfacet
  facet normal 0 0 1
    outer loop
      vertex 175.664 121.611 47.04
      vertex 175.31 123.025 47.04
      vertex 175.538 121.877 47.04
    endloop
  endfacet
  facet normal 0 0 1
    outer loop
      vertex 175.31 244.785 47.04
      vertex 175.368 245.37 47.04
      vertex 175.324 245.079 47.04
    endloop
  endfacet
  facet normal 0 0 1
    outer loop
      vertex 175.538 121.877 47.04
      vertex 175.31 123.025 47.04
      vertex 175.439 122.154 47.04
    endloop
  endfacet
  facet normal 0 0 1
    outer loop
      vertex 175.439 122.154 47.04
      vertex 175.31 123.025 47.04
      vertex 175.368 122.44 47.04
    endloop
  endfacet
  facet normal 0 0 1
    outer loop
      vertex 175.368 122.44 47.04
      vertex 175.31 123.025 47.04
      vertex 175.324 122.731 47.04
    endloop
  endfacet
  facet normal 0.0475651 0.998868 -0
    outer loop
      vertex 258.174 247.771 3
      vertex 257.88 247.785 47.04
      vertex 258.174 247.771 47.04
    endloop
  endfacet
  facet normal 0.0475651 0.998868 0
    outer loop
      vertex 257.88 247.785 47.04
      vertex 258.174 247.771 3
      vertex 257.88 247.785 3
    endloop
  endfacet
  facet normal 0 1 -0
    outer loop
      vertex 257.88 247.785 3
      vertex 178.31 247.785 47.04
      vertex 257.88 247.785 47.04
    endloop
  endfacet
  facet normal 0 1 0
    outer loop
      vertex 178.31 247.785 47.04
      vertex 257.88 247.785 3
      vertex 178.31 247.785 3
    endloop
  endfacet
  facet normal 0.97054 0.240938 0
    outer loop
      vertex 260.822 245.37 47.04
      vertex 260.751 245.656 3
      vertex 260.751 245.656 47.04
    endloop
  endfacet
  facet normal 0.97054 0.240938 0
    outer loop
      vertex 260.751 245.656 3
      vertex 260.822 245.37 47.04
      vertex 260.822 245.37 3
    endloop
  endfacet
  facet normal 0.336552 -0.941665 0
    outer loop
      vertex 258.751 120.154 3
      vertex 259.028 120.253 47.04
      vertex 258.751 120.154 47.04
    endloop
  endfacet
  facet normal 0.336552 -0.941665 0
    outer loop
      vertex 259.028 120.253 47.04
      vertex 258.751 120.154 3
      vertex 259.028 120.253 3
    endloop
  endfacet
  facet normal 0 -1 0
    outer loop
      vertex 178.31 120.025 3
      vertex 257.88 120.025 47.04
      vertex 178.31 120.025 47.04
    endloop
  endfacet
  facet normal 0 -1 -0
    outer loop
      vertex 257.88 120.025 47.04
      vertex 178.31 120.025 3
      vertex 257.88 120.025 3
    endloop
  endfacet
  facet normal -0.0475651 -0.998868 0
    outer loop
      vertex 178.016 120.039 3
      vertex 178.31 120.025 47.04
      vertex 178.016 120.039 47.04
    endloop
  endfacet
  facet normal -0.0475651 -0.998868 -0
    outer loop
      vertex 178.31 120.025 47.04
      vertex 178.016 120.039 3
      vertex 178.31 120.025 3
    endloop
  endfacet
  facet normal -0.740247 0.672335 0
    outer loop
      vertex 175.991 246.688 3
      vertex 176.189 246.906 47.04
      vertex 176.189 246.906 3
    endloop
  endfacet
  facet normal -0.740247 0.672335 0
    outer loop
      vertex 176.189 246.906 47.04
      vertex 175.991 246.688 3
      vertex 175.991 246.688 47.04
    endloop
  endfacet
  facet normal -0.0475651 0.998868 0
    outer loop
      vertex 178.31 247.785 3
      vertex 178.016 247.771 47.04
      vertex 178.31 247.785 47.04
    endloop
  endfacet
  facet normal -0.0475651 0.998868 0
    outer loop
      vertex 178.016 247.771 47.04
      vertex 178.31 247.785 3
      vertex 178.016 247.771 3
    endloop
  endfacet
  facet normal -0.514994 0.857194 0
    outer loop
      vertex 176.896 247.431 3
      vertex 176.643 247.279 47.04
      vertex 176.896 247.431 47.04
    endloop
  endfacet
  facet normal -0.514994 0.857194 0
    outer loop
      vertex 176.643 247.279 47.04
      vertex 176.896 247.431 3
      vertex 176.643 247.279 3
    endloop
  endfacet
  facet normal 0.149503 0.988761 -0
    outer loop
      vertex 258.465 247.727 3
      vertex 258.174 247.771 47.04
      vertex 258.465 247.727 47.04
    endloop
  endfacet
  facet normal 0.149503 0.988761 0
    outer loop
      vertex 258.174 247.771 47.04
      vertex 258.465 247.727 3
      vertex 258.174 247.771 3
    endloop
  endfacet
  facet normal 0.998868 0.0475651 0
    outer loop
      vertex 260.88 244.785 47.04
      vertex 260.866 245.079 3
      vertex 260.866 245.079 47.04
    endloop
  endfacet
  facet normal 0.998868 0.0475651 0
    outer loop
      vertex 260.866 245.079 3
      vertex 260.88 244.785 47.04
      vertex 260.88 244.785 3
    endloop
  endfacet
  facet normal -1 0 0
    outer loop
      vertex 175.31 123.025 3
      vertex 175.31 244.785 47.04
      vertex 175.31 244.785 3
    endloop
  endfacet
  facet normal -1 -0 0
    outer loop
      vertex 175.31 244.785 47.04
      vertex 175.31 123.025 3
      vertex 175.31 123.025 47.04
    endloop
  endfacet
  facet normal -0.97054 0.240938 0
    outer loop
      vertex 175.368 245.37 3
      vertex 175.439 245.656 47.04
      vertex 175.439 245.656 3
    endloop
  endfacet
  facet normal -0.97054 0.240938 0
    outer loop
      vertex 175.439 245.656 47.04
      vertex 175.368 245.37 3
      vertex 175.368 245.37 47.04
    endloop
  endfacet
  facet normal -0.240938 0.97054 0
    outer loop
      vertex 177.725 247.727 3
      vertex 177.439 247.656 47.04
      vertex 177.725 247.727 47.04
    endloop
  endfacet
  facet normal -0.240938 0.97054 0
    outer loop
      vertex 177.439 247.656 47.04
      vertex 177.725 247.727 3
      vertex 177.439 247.656 3
    endloop
  endfacet
  facet normal -0.428086 0.903738 0
    outer loop
      vertex 177.162 247.557 3
      vertex 176.896 247.431 47.04
      vertex 177.162 247.557 47.04
    endloop
  endfacet
  facet normal -0.428086 0.903738 0
    outer loop
      vertex 176.896 247.431 47.04
      vertex 177.162 247.557 3
      vertex 176.896 247.431 3
    endloop
  endfacet
  facet normal 0.595634 0.803256 -0
    outer loop
      vertex 259.783 247.104 3
      vertex 259.547 247.279 47.04
      vertex 259.783 247.104 47.04
    endloop
  endfacet
  facet normal 0.595634 0.803256 0
    outer loop
      vertex 259.547 247.279 47.04
      vertex 259.783 247.104 3
      vertex 259.547 247.279 3
    endloop
  endfacet
  facet normal 0.428086 0.903738 -0
    outer loop
      vertex 259.294 247.431 3
      vertex 259.028 247.557 47.04
      vertex 259.294 247.431 47.04
    endloop
  endfacet
  facet normal 0.428086 0.903738 0
    outer loop
      vertex 259.028 247.557 47.04
      vertex 259.294 247.431 3
      vertex 259.028 247.557 3
    endloop
  endfacet
  facet normal 0.803256 0.595634 0
    outer loop
      vertex 260.374 246.452 47.04
      vertex 260.199 246.688 3
      vertex 260.199 246.688 47.04
    endloop
  endfacet
  facet normal 0.803256 0.595634 0
    outer loop
      vertex 260.199 246.688 3
      vertex 260.374 246.452 47.04
      vertex 260.374 246.452 3
    endloop
  endfacet
  facet normal 0.740247 0.672335 0
    outer loop
      vertex 260.199 246.688 47.04
      vertex 260.001 246.906 3
      vertex 260.001 246.906 47.04
    endloop
  endfacet
  facet normal 0.740247 0.672335 0
    outer loop
      vertex 260.001 246.906 3
      vertex 260.199 246.688 47.04
      vertex 260.199 246.688 3
    endloop
  endfacet
  facet normal 0.903738 0.428086 0
    outer loop
      vertex 260.652 245.933 47.04
      vertex 260.526 246.199 3
      vertex 260.526 246.199 47.04
    endloop
  endfacet
  facet normal 0.903738 0.428086 0
    outer loop
      vertex 260.526 246.199 3
      vertex 260.652 245.933 47.04
      vertex 260.652 245.933 3
    endloop
  endfacet
  facet normal 0.941665 0.336552 0
    outer loop
      vertex 260.751 245.656 47.04
      vertex 260.652 245.933 3
      vertex 260.652 245.933 47.04
    endloop
  endfacet
  facet normal 0.941665 0.336552 0
    outer loop
      vertex 260.652 245.933 3
      vertex 260.751 245.656 47.04
      vertex 260.751 245.656 3
    endloop
  endfacet
  facet normal 0.988761 0.149503 0
    outer loop
      vertex 260.866 245.079 47.04
      vertex 260.822 245.37 3
      vertex 260.822 245.37 47.04
    endloop
  endfacet
  facet normal 0.988761 0.149503 0
    outer loop
      vertex 260.822 245.37 3
      vertex 260.866 245.079 47.04
      vertex 260.866 245.079 3
    endloop
  endfacet
  facet normal 0.595634 -0.803256 0
    outer loop
      vertex 259.547 120.531 3
      vertex 259.783 120.706 47.04
      vertex 259.547 120.531 47.04
    endloop
  endfacet
  facet normal 0.595634 -0.803256 0
    outer loop
      vertex 259.783 120.706 47.04
      vertex 259.547 120.531 3
      vertex 259.783 120.706 3
    endloop
  endfacet
  facet normal -0.998868 -0.0475651 0
    outer loop
      vertex 175.324 122.731 3
      vertex 175.31 123.025 47.04
      vertex 175.31 123.025 3
    endloop
  endfacet
  facet normal -0.998868 -0.0475651 0
    outer loop
      vertex 175.31 123.025 47.04
      vertex 175.324 122.731 3
      vertex 175.324 122.731 47.04
    endloop
  endfacet
  facet normal -0.988761 0.149503 0
    outer loop
      vertex 175.324 245.079 3
      vertex 175.368 245.37 47.04
      vertex 175.368 245.37 3
    endloop
  endfacet
  facet normal -0.988761 0.149503 0
    outer loop
      vertex 175.368 245.37 47.04
      vertex 175.324 245.079 3
      vertex 175.324 245.079 47.04
    endloop
  endfacet
  facet normal -0.941665 0.336552 0
    outer loop
      vertex 175.439 245.656 3
      vertex 175.538 245.933 47.04
      vertex 175.538 245.933 3
    endloop
  endfacet
  facet normal -0.941665 0.336552 0
    outer loop
      vertex 175.538 245.933 47.04
      vertex 175.439 245.656 3
      vertex 175.439 245.656 47.04
    endloop
  endfacet
  facet normal -0.803256 0.595634 0
    outer loop
      vertex 175.816 246.452 3
      vertex 175.991 246.688 47.04
      vertex 175.991 246.688 3
    endloop
  endfacet
  facet normal -0.803256 0.595634 0
    outer loop
      vertex 175.991 246.688 47.04
      vertex 175.816 246.452 3
      vertex 175.816 246.452 47.04
    endloop
  endfacet
  facet normal -0.903738 0.428086 0
    outer loop
      vertex 175.538 245.933 3
      vertex 175.664 246.199 47.04
      vertex 175.664 246.199 3
    endloop
  endfacet
  facet normal -0.903738 0.428086 0
    outer loop
      vertex 175.664 246.199 47.04
      vertex 175.538 245.933 3
      vertex 175.538 245.933 47.04
    endloop
  endfacet
  facet normal -0.857194 0.514994 0
    outer loop
      vertex 175.664 246.199 3
      vertex 175.816 246.452 47.04
      vertex 175.816 246.452 3
    endloop
  endfacet
  facet normal -0.857194 0.514994 0
    outer loop
      vertex 175.816 246.452 47.04
      vertex 175.664 246.199 3
      vertex 175.664 246.199 47.04
    endloop
  endfacet
  facet normal -0.149503 0.988761 0
    outer loop
      vertex 178.016 247.771 3
      vertex 177.725 247.727 47.04
      vertex 178.016 247.771 47.04
    endloop
  endfacet
  facet normal -0.149503 0.988761 0
    outer loop
      vertex 177.725 247.727 47.04
      vertex 178.016 247.771 3
      vertex 177.725 247.727 3
    endloop
  endfacet
  facet normal -0.336552 0.941665 0
    outer loop
      vertex 177.439 247.656 3
      vertex 177.162 247.557 47.04
      vertex 177.439 247.656 47.04
    endloop
  endfacet
  facet normal -0.336552 0.941665 0
    outer loop
      vertex 177.162 247.557 47.04
      vertex 177.439 247.656 3
      vertex 177.162 247.557 3
    endloop
  endfacet
  facet normal -0.672335 0.740247 0
    outer loop
      vertex 176.407 247.104 3
      vertex 176.189 246.906 47.04
      vertex 176.407 247.104 47.04
    endloop
  endfacet
  facet normal -0.672335 0.740247 0
    outer loop
      vertex 176.189 246.906 47.04
      vertex 176.407 247.104 3
      vertex 176.189 246.906 3
    endloop
  endfacet
  facet normal -0.595634 0.803256 0
    outer loop
      vertex 176.643 247.279 3
      vertex 176.407 247.104 47.04
      vertex 176.643 247.279 47.04
    endloop
  endfacet
  facet normal -0.595634 0.803256 0
    outer loop
      vertex 176.407 247.104 47.04
      vertex 176.643 247.279 3
      vertex 176.407 247.104 3
    endloop
  endfacet
  facet normal 0.514994 0.857194 -0
    outer loop
      vertex 259.547 247.279 3
      vertex 259.294 247.431 47.04
      vertex 259.547 247.279 47.04
    endloop
  endfacet
  facet normal 0.514994 0.857194 0
    outer loop
      vertex 259.294 247.431 47.04
      vertex 259.547 247.279 3
      vertex 259.294 247.431 3
    endloop
  endfacet
  facet normal 0.336552 0.941665 -0
    outer loop
      vertex 259.028 247.557 3
      vertex 258.751 247.656 47.04
      vertex 259.028 247.557 47.04
    endloop
  endfacet
  facet normal 0.336552 0.941665 0
    outer loop
      vertex 258.751 247.656 47.04
      vertex 259.028 247.557 3
      vertex 258.751 247.656 3
    endloop
  endfacet
  facet normal 0.0475651 -0.998868 0
    outer loop
      vertex 257.88 120.025 3
      vertex 258.174 120.039 47.04
      vertex 257.88 120.025 47.04
    endloop
  endfacet
  facet normal 0.0475651 -0.998868 0
    outer loop
      vertex 258.174 120.039 47.04
      vertex 257.88 120.025 3
      vertex 258.174 120.039 3
    endloop
  endfacet
  facet normal 0.803256 -0.595634 0
    outer loop
      vertex 260.199 121.122 47.04
      vertex 260.374 121.358 3
      vertex 260.374 121.358 47.04
    endloop
  endfacet
  facet normal 0.803256 -0.595634 0
    outer loop
      vertex 260.374 121.358 3
      vertex 260.199 121.122 47.04
      vertex 260.199 121.122 3
    endloop
  endfacet
  facet normal 0.988761 -0.149503 0
    outer loop
      vertex 260.822 122.44 47.04
      vertex 260.866 122.731 3
      vertex 260.866 122.731 47.04
    endloop
  endfacet
  facet normal 0.988761 -0.149503 0
    outer loop
      vertex 260.866 122.731 3
      vertex 260.822 122.44 47.04
      vertex 260.822 122.44 3
    endloop
  endfacet
  facet normal 0.857194 -0.514994 0
    outer loop
      vertex 260.374 121.358 47.04
      vertex 260.526 121.611 3
      vertex 260.526 121.611 47.04
    endloop
  endfacet
  facet normal 0.857194 -0.514994 0
    outer loop
      vertex 260.526 121.611 3
      vertex 260.374 121.358 47.04
      vertex 260.374 121.358 3
    endloop
  endfacet
  facet normal -0.336552 -0.941665 0
    outer loop
      vertex 177.162 120.253 3
      vertex 177.439 120.154 47.04
      vertex 177.162 120.253 47.04
    endloop
  endfacet
  facet normal -0.336552 -0.941665 -0
    outer loop
      vertex 177.439 120.154 47.04
      vertex 177.162 120.253 3
      vertex 177.439 120.154 3
    endloop
  endfacet
  facet normal -0.803256 -0.595634 0
    outer loop
      vertex 175.991 121.122 3
      vertex 175.816 121.358 47.04
      vertex 175.816 121.358 3
    endloop
  endfacet
  facet normal -0.803256 -0.595634 0
    outer loop
      vertex 175.816 121.358 47.04
      vertex 175.991 121.122 3
      vertex 175.991 121.122 47.04
    endloop
  endfacet
  facet normal -0.97054 -0.240938 0
    outer loop
      vertex 175.439 122.154 3
      vertex 175.368 122.44 47.04
      vertex 175.368 122.44 3
    endloop
  endfacet
  facet normal -0.97054 -0.240938 0
    outer loop
      vertex 175.368 122.44 47.04
      vertex 175.439 122.154 3
      vertex 175.439 122.154 47.04
    endloop
  endfacet
  facet normal -0.941665 -0.336552 0
    outer loop
      vertex 175.538 121.877 3
      vertex 175.439 122.154 47.04
      vertex 175.439 122.154 3
    endloop
  endfacet
  facet normal -0.941665 -0.336552 0
    outer loop
      vertex 175.439 122.154 47.04
      vertex 175.538 121.877 3
      vertex 175.538 121.877 47.04
    endloop
  endfacet
  facet normal 0.240938 0.97054 -0
    outer loop
      vertex 258.751 247.656 3
      vertex 258.465 247.727 47.04
      vertex 258.751 247.656 47.04
    endloop
  endfacet
  facet normal 0.240938 0.97054 0
    outer loop
      vertex 258.465 247.727 47.04
      vertex 258.751 247.656 3
      vertex 258.465 247.727 3
    endloop
  endfacet
  facet normal 0.857194 0.514994 0
    outer loop
      vertex 260.526 246.199 47.04
      vertex 260.374 246.452 3
      vertex 260.374 246.452 47.04
    endloop
  endfacet
  facet normal 0.857194 0.514994 0
    outer loop
      vertex 260.374 246.452 3
      vertex 260.526 246.199 47.04
      vertex 260.526 246.199 3
    endloop
  endfacet
  facet normal 0 0 -1
    outer loop
      vertex 257.88 120.025 3
      vertex 260.88 123.025 3
      vertex 260.866 122.731 3
    endloop
  endfacet
  facet normal 0 0 -1
    outer loop
      vertex 260.88 123.025 3
      vertex 175.31 123.025 3
      vertex 260.88 244.785 3
    endloop
  endfacet
  facet normal 0 0 -1
    outer loop
      vertex 257.88 120.025 3
      vertex 260.866 122.731 3
      vertex 260.822 122.44 3
    endloop
  endfacet
  facet normal 0 0 -1
    outer loop
      vertex 175.31 244.785 3
      vertex 260.88 244.785 3
      vertex 175.31 123.025 3
    endloop
  endfacet
  facet normal 0 0 -1
    outer loop
      vertex 257.88 120.025 3
      vertex 260.822 122.44 3
      vertex 260.751 122.154 3
    endloop
  endfacet
  facet normal 0 -0 -1
    outer loop
      vertex 257.88 247.785 3
      vertex 260.88 244.785 3
      vertex 175.31 244.785 3
    endloop
  endfacet
  facet normal 0 0 -1
    outer loop
      vertex 257.88 120.025 3
      vertex 260.751 122.154 3
      vertex 260.652 121.877 3
    endloop
  endfacet
  facet normal 0 0 -1
    outer loop
      vertex 260.88 244.785 3
      vertex 257.88 247.785 3
      vertex 260.866 245.079 3
    endloop
  endfacet
  facet normal 0 0 -1
    outer loop
      vertex 257.88 120.025 3
      vertex 260.652 121.877 3
      vertex 260.526 121.611 3
    endloop
  endfacet
  facet normal -0 0 -1
    outer loop
      vertex 260.88 123.025 3
      vertex 257.88 120.025 3
      vertex 175.31 123.025 3
    endloop
  endfacet
  facet normal 0 0 -1
    outer loop
      vertex 257.88 120.025 3
      vertex 260.526 121.611 3
      vertex 260.374 121.358 3
    endloop
  endfacet
  facet normal 0 0 -1
    outer loop
      vertex 260.866 245.079 3
      vertex 257.88 247.785 3
      vertex 260.822 245.37 3
    endloop
  endfacet
  facet normal 0 0 -1
    outer loop
      vertex 257.88 120.025 3
      vertex 260.374 121.358 3
      vertex 260.199 121.122 3
    endloop
  endfacet
  facet normal 0 0 -1
    outer loop
      vertex 260.652 245.933 3
      vertex 257.88 247.785 3
      vertex 260.526 246.199 3
    endloop
  endfacet
  facet normal 0 0 -1
    outer loop
      vertex 257.88 120.025 3
      vertex 260.199 121.122 3
      vertex 260.001 120.904 3
    endloop
  endfacet
  facet normal 0 0 -1
    outer loop
      vertex 260.526 246.199 3
      vertex 257.88 247.785 3
      vertex 260.374 246.452 3
    endloop
  endfacet
  facet normal 0 0 -1
    outer loop
      vertex 257.88 120.025 3
      vertex 260.001 120.904 3
      vertex 259.783 120.706 3
    endloop
  endfacet
  facet normal 0 0 -1
    outer loop
      vertex 260.374 246.452 3
      vertex 257.88 247.785 3
      vertex 260.199 246.688 3
    endloop
  endfacet
  facet normal 0 0 -1
    outer loop
      vertex 257.88 120.025 3
      vertex 259.783 120.706 3
      vertex 259.547 120.531 3
    endloop
  endfacet
  facet normal 0 0 -1
    outer loop
      vertex 260.199 246.688 3
      vertex 257.88 247.785 3
      vertex 260.001 246.906 3
    endloop
  endfacet
  facet normal 0 0 -1
    outer loop
      vertex 257.88 120.025 3
      vertex 259.547 120.531 3
      vertex 259.294 120.379 3
    endloop
  endfacet
  facet normal 0 0 -1
    outer loop
      vertex 260.001 246.906 3
      vertex 257.88 247.785 3
      vertex 259.783 247.104 3
    endloop
  endfacet
  facet normal 0 0 -1
    outer loop
      vertex 257.88 120.025 3
      vertex 259.294 120.379 3
      vertex 259.028 120.253 3
    endloop
  endfacet
  facet normal 0 0 -1
    outer loop
      vertex 259.783 247.104 3
      vertex 257.88 247.785 3
      vertex 259.547 247.279 3
    endloop
  endfacet
  facet normal 0 0 -1
    outer loop
      vertex 257.88 120.025 3
      vertex 259.028 120.253 3
      vertex 258.751 120.154 3
    endloop
  endfacet
  facet normal 0 0 -1
    outer loop
      vertex 259.547 247.279 3
      vertex 257.88 247.785 3
      vertex 259.294 247.431 3
    endloop
  endfacet
  facet normal 0 0 -1
    outer loop
      vertex 257.88 120.025 3
      vertex 258.751 120.154 3
      vertex 258.465 120.083 3
    endloop
  endfacet
  facet normal 0 0 -1
    outer loop
      vertex 259.294 247.431 3
      vertex 257.88 247.785 3
      vertex 259.028 247.557 3
    endloop
  endfacet
  facet normal 0 0 -1
    outer loop
      vertex 257.88 120.025 3
      vertex 258.465 120.083 3
      vertex 258.174 120.039 3
    endloop
  endfacet
  facet normal 0 0 -1
    outer loop
      vertex 259.028 247.557 3
      vertex 257.88 247.785 3
      vertex 258.751 247.656 3
    endloop
  endfacet
  facet normal 0 0 -1
    outer loop
      vertex 258.751 247.656 3
      vertex 257.88 247.785 3
      vertex 258.465 247.727 3
    endloop
  endfacet
  facet normal 0 0 -1
    outer loop
      vertex 258.465 247.727 3
      vertex 257.88 247.785 3
      vertex 258.174 247.771 3
    endloop
  endfacet
  facet normal 0 0 -1
    outer loop
      vertex 175.31 123.025 3
      vertex 257.88 120.025 3
      vertex 178.31 120.025 3
    endloop
  endfacet
  facet normal 0 0 -1
    outer loop
      vertex 260.822 245.37 3
      vertex 257.88 247.785 3
      vertex 260.751 245.656 3
    endloop
  endfacet
  facet normal 0 0 -1
    outer loop
      vertex 175.31 123.025 3
      vertex 178.31 120.025 3
      vertex 178.016 120.039 3
    endloop
  endfacet
  facet normal 0 0 -1
    outer loop
      vertex 260.751 245.656 3
      vertex 257.88 247.785 3
      vertex 260.652 245.933 3
    endloop
  endfacet
  facet normal 0 0 -1
    outer loop
      vertex 175.31 123.025 3
      vertex 178.016 120.039 3
      vertex 177.725 120.083 3
    endloop
  endfacet
  facet normal -0 0 -1
    outer loop
      vertex 257.88 247.785 3
      vertex 175.31 244.785 3
      vertex 178.31 247.785 3
    endloop
  endfacet
  facet normal 0 0 -1
    outer loop
      vertex 175.31 123.025 3
      vertex 177.725 120.083 3
      vertex 177.439 120.154 3
    endloop
  endfacet
  facet normal 0 0 -1
    outer loop
      vertex 178.31 247.785 3
      vertex 175.31 244.785 3
      vertex 178.016 247.771 3
    endloop
  endfacet
  facet normal 0 0 -1
    outer loop
      vertex 175.31 123.025 3
      vertex 177.439 120.154 3
      vertex 177.162 120.253 3
    endloop
  endfacet
  facet normal 0 0 -1
    outer loop
      vertex 178.016 247.771 3
      vertex 175.31 244.785 3
      vertex 177.725 247.727 3
    endloop
  endfacet
  facet normal 0 0 -1
    outer loop
      vertex 175.31 123.025 3
      vertex 177.162 120.253 3
      vertex 176.896 120.379 3
    endloop
  endfacet
  facet normal 0 0 -1
    outer loop
      vertex 177.725 247.727 3
      vertex 175.31 244.785 3
      vertex 177.439 247.656 3
    endloop
  endfacet
  facet normal 0 0 -1
    outer loop
      vertex 175.31 123.025 3
      vertex 176.896 120.379 3
      vertex 176.643 120.531 3
    endloop
  endfacet
  facet normal 0 0 -1
    outer loop
      vertex 177.439 247.656 3
      vertex 175.31 244.785 3
      vertex 177.162 247.557 3
    endloop
  endfacet
  facet normal 0 0 -1
    outer loop
      vertex 175.31 123.025 3
      vertex 176.643 120.531 3
      vertex 176.407 120.706 3
    endloop
  endfacet
  facet normal 0 0 -1
    outer loop
      vertex 177.162 247.557 3
      vertex 175.31 244.785 3
      vertex 176.896 247.431 3
    endloop
  endfacet
  facet normal 0 0 -1
    outer loop
      vertex 175.31 123.025 3
      vertex 176.407 120.706 3
      vertex 176.189 120.904 3
    endloop
  endfacet
  facet normal 0 0 -1
    outer loop
      vertex 176.896 247.431 3
      vertex 175.31 244.785 3
      vertex 176.643 247.279 3
    endloop
  endfacet
  facet normal 0 0 -1
    outer loop
      vertex 175.31 123.025 3
      vertex 176.189 120.904 3
      vertex 175.991 121.122 3
    endloop
  endfacet
  facet normal 0 0 -1
    outer loop
      vertex 176.643 247.279 3
      vertex 175.31 244.785 3
      vertex 176.407 247.104 3
    endloop
  endfacet
  facet normal 0 0 -1
    outer loop
      vertex 175.31 123.025 3
      vertex 175.991 121.122 3
      vertex 175.816 121.358 3
    endloop
  endfacet
  facet normal 0 0 -1
    outer loop
      vertex 176.407 247.104 3
      vertex 175.31 244.785 3
      vertex 176.189 246.906 3
    endloop
  endfacet
  facet normal 0 0 -1
    outer loop
      vertex 175.31 123.025 3
      vertex 175.816 121.358 3
      vertex 175.664 121.611 3
    endloop
  endfacet
  facet normal 0 0 -1
    outer loop
      vertex 176.189 246.906 3
      vertex 175.31 244.785 3
      vertex 175.991 246.688 3
    endloop
  endfacet
  facet normal 0 0 -1
    outer loop
      vertex 175.31 123.025 3
      vertex 175.664 121.611 3
      vertex 175.538 121.877 3
    endloop
  endfacet
  facet normal 0 0 -1
    outer loop
      vertex 175.991 246.688 3
      vertex 175.31 244.785 3
      vertex 175.816 246.452 3
    endloop
  endfacet
  facet normal 0 0 -1
    outer loop
      vertex 175.31 123.025 3
      vertex 175.538 121.877 3
      vertex 175.439 122.154 3
    endloop
  endfacet
  facet normal 0 0 -1
    outer loop
      vertex 175.816 246.452 3
      vertex 175.31 244.785 3
      vertex 175.664 246.199 3
    endloop
  endfacet
  facet normal 0 0 -1
    outer loop
      vertex 175.31 123.025 3
      vertex 175.439 122.154 3
      vertex 175.368 122.44 3
    endloop
  endfacet
  facet normal 0 0 -1
    outer loop
      vertex 175.664 246.199 3
      vertex 175.31 244.785 3
      vertex 175.538 245.933 3
    endloop
  endfacet
  facet normal 0 0 -1
    outer loop
      vertex 175.31 123.025 3
      vertex 175.368 122.44 3
      vertex 175.324 122.731 3
    endloop
  endfacet
  facet normal 0 0 -1
    outer loop
      vertex 175.538 245.933 3
      vertex 175.31 244.785 3
      vertex 175.439 245.656 3
    endloop
  endfacet
  facet normal 0 0 -1
    outer loop
      vertex 175.439 245.656 3
      vertex 175.31 244.785 3
      vertex 175.368 245.37 3
    endloop
  endfacet
  facet normal 0 0 -1
    outer loop
      vertex 175.368 245.37 3
      vertex 175.31 244.785 3
      vertex 175.324 245.079 3
    endloop
  endfacet
  facet normal 0.428086 -0.903738 0
    outer loop
      vertex 259.028 120.253 3
      vertex 259.294 120.379 47.04
      vertex 259.028 120.253 47.04
    endloop
  endfacet
  facet normal 0.428086 -0.903738 0
    outer loop
      vertex 259.294 120.379 47.04
      vertex 259.028 120.253 3
      vertex 259.294 120.379 3
    endloop
  endfacet
  facet normal 0.941665 -0.336552 0
    outer loop
      vertex 260.652 121.877 47.04
      vertex 260.751 122.154 3
      vertex 260.751 122.154 47.04
    endloop
  endfacet
  facet normal 0.941665 -0.336552 0
    outer loop
      vertex 260.751 122.154 3
      vertex 260.652 121.877 47.04
      vertex 260.652 121.877 3
    endloop
  endfacet
  facet normal 0.998868 -0.0475651 0
    outer loop
      vertex 260.866 122.731 47.04
      vertex 260.88 123.025 3
      vertex 260.88 123.025 47.04
    endloop
  endfacet
  facet normal 0.998868 -0.0475651 0
    outer loop
      vertex 260.88 123.025 3
      vertex 260.866 122.731 47.04
      vertex 260.866 122.731 3
    endloop
  endfacet
  facet normal -0.240938 -0.97054 0
    outer loop
      vertex 177.439 120.154 3
      vertex 177.725 120.083 47.04
      vertex 177.439 120.154 47.04
    endloop
  endfacet
  facet normal -0.240938 -0.97054 -0
    outer loop
      vertex 177.725 120.083 47.04
      vertex 177.439 120.154 3
      vertex 177.725 120.083 3
    endloop
  endfacet
  facet normal -0.428086 -0.903738 0
    outer loop
      vertex 176.896 120.379 3
      vertex 177.162 120.253 47.04
      vertex 176.896 120.379 47.04
    endloop
  endfacet
  facet normal -0.428086 -0.903738 -0
    outer loop
      vertex 177.162 120.253 47.04
      vertex 176.896 120.379 3
      vertex 177.162 120.253 3
    endloop
  endfacet
  facet normal -0.514994 -0.857194 0
    outer loop
      vertex 176.643 120.531 3
      vertex 176.896 120.379 47.04
      vertex 176.643 120.531 47.04
    endloop
  endfacet
  facet normal -0.514994 -0.857194 -0
    outer loop
      vertex 176.896 120.379 47.04
      vertex 176.643 120.531 3
      vertex 176.896 120.379 3
    endloop
  endfacet
  facet normal -0.595634 -0.803256 0
    outer loop
      vertex 176.407 120.706 3
      vertex 176.643 120.531 47.04
      vertex 176.407 120.706 47.04
    endloop
  endfacet
  facet normal -0.595634 -0.803256 -0
    outer loop
      vertex 176.643 120.531 47.04
      vertex 176.407 120.706 3
      vertex 176.643 120.531 3
    endloop
  endfacet
  facet normal -0.672335 -0.740247 0
    outer loop
      vertex 176.189 120.904 3
      vertex 176.407 120.706 47.04
      vertex 176.189 120.904 47.04
    endloop
  endfacet
  facet normal -0.672335 -0.740247 -0
    outer loop
      vertex 176.407 120.706 47.04
      vertex 176.189 120.904 3
      vertex 176.407 120.706 3
    endloop
  endfacet
  facet normal -0.740247 -0.672335 0
    outer loop
      vertex 176.189 120.904 3
      vertex 175.991 121.122 47.04
      vertex 175.991 121.122 3
    endloop
  endfacet
  facet normal -0.740247 -0.672335 0
    outer loop
      vertex 175.991 121.122 47.04
      vertex 176.189 120.904 3
      vertex 176.189 120.904 47.04
    endloop
  endfacet
  facet normal -0.988761 -0.149503 0
    outer loop
      vertex 175.368 122.44 3
      vertex 175.324 122.731 47.04
      vertex 175.324 122.731 3
    endloop
  endfacet
  facet normal -0.988761 -0.149503 0
    outer loop
      vertex 175.324 122.731 47.04
      vertex 175.368 122.44 3
      vertex 175.368 122.44 47.04
    endloop
  endfacet
  facet normal -0.857194 -0.514994 0
    outer loop
      vertex 175.816 121.358 3
      vertex 175.664 121.611 47.04
      vertex 175.664 121.611 3
    endloop
  endfacet
  facet normal -0.857194 -0.514994 0
    outer loop
      vertex 175.664 121.611 47.04
      vertex 175.816 121.358 3
      vertex 175.816 121.358 47.04
    endloop
  endfacet
  facet normal -0.903738 -0.428086 0
    outer loop
      vertex 175.664 121.611 3
      vertex 175.538 121.877 47.04
      vertex 175.538 121.877 3
    endloop
  endfacet
  facet normal -0.903738 -0.428086 0
    outer loop
      vertex 175.538 121.877 47.04
      vertex 175.664 121.611 3
      vertex 175.664 121.611 47.04
    endloop
  endfacet
  facet normal 0.149503 -0.988761 0
    outer loop
      vertex 258.174 120.039 3
      vertex 258.465 120.083 47.04
      vertex 258.174 120.039 47.04
    endloop
  endfacet
  facet normal 0.149503 -0.988761 0
    outer loop
      vertex 258.465 120.083 47.04
      vertex 258.174 120.039 3
      vertex 258.465 120.083 3
    endloop
  endfacet
  facet normal 0.240938 -0.97054 0
    outer loop
      vertex 258.465 120.083 3
      vertex 258.751 120.154 47.04
      vertex 258.465 120.083 47.04
    endloop
  endfacet
  facet normal 0.240938 -0.97054 0
    outer loop
      vertex 258.751 120.154 47.04
      vertex 258.465 120.083 3
      vertex 258.751 120.154 3
    endloop
  endfacet
  facet normal 0.514994 -0.857194 0
    outer loop
      vertex 259.294 120.379 3
      vertex 259.547 120.531 47.04
      vertex 259.294 120.379 47.04
    endloop
  endfacet
  facet normal 0.514994 -0.857194 0
    outer loop
      vertex 259.547 120.531 47.04
      vertex 259.294 120.379 3
      vertex 259.547 120.531 3
    endloop
  endfacet
  facet normal 0.672335 -0.740247 0
    outer loop
      vertex 259.783 120.706 3
      vertex 260.001 120.904 47.04
      vertex 259.783 120.706 47.04
    endloop
  endfacet
  facet normal 0.672335 -0.740247 0
    outer loop
      vertex 260.001 120.904 47.04
      vertex 259.783 120.706 3
      vertex 260.001 120.904 3
    endloop
  endfacet
  facet normal 0.740247 -0.672335 0
    outer loop
      vertex 260.001 120.904 47.04
      vertex 260.199 121.122 3
      vertex 260.199 121.122 47.04
    endloop
  endfacet
  facet normal 0.740247 -0.672335 0
    outer loop
      vertex 260.199 121.122 3
      vertex 260.001 120.904 47.04
      vertex 260.001 120.904 3
    endloop
  endfacet
  facet normal 0.97054 -0.240938 0
    outer loop
      vertex 260.751 122.154 47.04
      vertex 260.822 122.44 3
      vertex 260.822 122.44 47.04
    endloop
  endfacet
  facet normal 0.97054 -0.240938 0
    outer loop
      vertex 260.822 122.44 3
      vertex 260.751 122.154 47.04
      vertex 260.751 122.154 3
    endloop
  endfacet
  facet normal 0.903738 -0.428086 0
    outer loop
      vertex 260.526 121.611 47.04
      vertex 260.652 121.877 3
      vertex 260.652 121.877 47.04
    endloop
  endfacet
  facet normal 0.903738 -0.428086 0
    outer loop
      vertex 260.652 121.877 3
      vertex 260.526 121.611 47.04
      vertex 260.526 121.611 3
    endloop
  endfacet
  facet normal 0 1 -0
    outer loop
      vertex 254.095 129.905 7.81
      vertex 182.095 129.905 47.04
      vertex 254.095 129.905 47.04
    endloop
  endfacet
  facet normal 0 1 0
    outer loop
      vertex 182.095 129.905 47.04
      vertex 254.095 129.905 7.81
      vertex 182.095 129.905 7.81
    endloop
  endfacet
  facet normal 0 -1 0
    outer loop
      vertex 182.095 237.905 7.81
      vertex 254.095 237.905 47.04
      vertex 182.095 237.905 47.04
    endloop
  endfacet
  facet normal 0 -1 -0
    outer loop
      vertex 254.095 237.905 47.04
      vertex 182.095 237.905 7.81
      vertex 254.095 237.905 7.81
    endloop
  endfacet
  facet normal 1 -0 0
    outer loop
      vertex 182.095 129.905 47.04
      vertex 182.095 237.905 7.81
      vertex 182.095 237.905 47.04
    endloop
  endfacet
  facet normal 1 0 0
    outer loop
      vertex 182.095 237.905 7.81
      vertex 182.095 129.905 47.04
      vertex 182.095 129.905 7.81
    endloop
  endfacet
  facet normal -0 0 1
    outer loop
      vertex 182.095 237.905 7.81
      vertex 254.095 129.905 7.81
      vertex 254.095 237.905 7.81
    endloop
  endfacet
  facet normal 0 0 1
    outer loop
      vertex 254.095 129.905 7.81
      vertex 182.095 237.905 7.81
      vertex 182.095 129.905 7.81
    endloop
  endfacet
  facet normal -1 0 0
    outer loop
      vertex 254.095 129.905 7.81
      vertex 254.095 237.905 47.04
      vertex 254.095 237.905 7.81
    endloop
  endfacet
  facet normal -1 -0 0
    outer loop
      vertex 254.095 237.905 47.04
      vertex 254.095 129.905 7.81
      vertex 254.095 129.905 47.04
    endloop
  endfacet
endsolid OpenSCAD_Model
